# xmcd
#
# Track frame offsets:
#	150
#	19700
#	44670
#	64075
#	77807
#	100175
#	115212
#	142200
#	161237
#	179225
#	198980
#
# Disc length: 2913 seconds
#
# Revision: 1
# Processed by: cddbd v1.5.1PL0 Copyright (c) Steve Scherf et al.
# Submitted via: CDex 1.50Beta5
#
DISCID=a40b5f0b
DTITLE=電気GROOVE - 電気グルーヴのグレイテストヒッツ
DYEAR=1900
DGENRE=
TTITLE0=N.O.
TTITLE1=電気ビリビリ
TTITLE2=Bingo!
TTITLE3=MUD EBIS
TTITLE4=Twist of The World
TTITLE5=カフェ・ド・鬼
TTITLE6=電気グルーヴ/オールスター家族対抗歌合戦
TTITLE7=トランジスタ・ラジオ
TTITLE8=ウィー・アー
TTITLE9=スネーク フィンガー
TTITLE10=N.O.
EXTD=
EXTT0=
EXTT1=
EXTT2=
EXTT3=
EXTT4=
EXTT5=
EXTT6=
EXTT7=
EXTT8=
EXTT9=
EXTT10=
PLAYORDER=
